<?xml version="1.0" standalone="no"?>
<!DOCTYPE svg PUBLIC "-//W3C//DTD SVG 20010904//EN"
 "http://www.w3.org/TR/2001/REC-SVG-20010904/DTD/svg10.dtd">
<svg version="1.0" xmlns="http://www.w3.org/2000/svg"
 width="340.000000pt" height="340.000000pt" viewBox="0 0 340.000000 340.000000"
 preserveAspectRatio="xMidYMid meet">
<metadata>
Created by potrace 1.11, written by Peter Selinger 2001-2013
</metadata>
<g transform="translate(0.000000,340.000000) scale(0.100000,-0.100000)"
fill="#000000" stroke="none">
<path d="M422 3298 c-11 -29 -32 -89 -47 -133 -15 -44 -78 -226 -140 -405 -62
-179 -134 -386 -159 -460 -26 -74 -51 -145 -56 -158 -6 -13 -10 -27 -10 -33 0
-6 49 -9 127 -7 l127 3 32 105 c18 58 37 116 42 130 l10 26 223 -1 224 0 38
-120 c21 -66 40 -126 42 -132 3 -10 39 -13 135 -13 71 0 130 2 130 4 0 7 -39
124 -90 266 -29 80 -80 226 -115 325 -35 99 -91 259 -125 355 -34 96 -72 203
-83 238 l-21 62 -132 0 -133 0 -19 -52z m173 -278 c10 -36 44 -150 76 -254 33
-104 59 -193 59 -197 0 -5 -72 -9 -160 -9 -88 0 -160 4 -160 9 0 5 31 111 70
235 38 124 73 245 76 267 8 49 15 40 39 -51z"/>
<path d="M1993 2502 c-36 -4 -9 57 -224 -497 -60 -154 -114 -289 -119 -300 -5
-11 -32 -81 -60 -155 -29 -74 -67 -172 -86 -218 l-33 -83 96 3 97 3 74 190
c40 105 80 204 87 220 7 17 42 107 78 200 57 146 229 587 244 622 5 12 -90 21
-154 15z"/>
<path d="M2349 1248 c-1 -2 -2 -283 -3 -626 l-1 -622 126 0 126 0 -1 430 -2
429 51 -97 c29 -53 144 -245 256 -427 l205 -330 124 0 125 0 0 622 0 623 -126
0 -126 0 2 -433 1 -433 -44 86 c-23 47 -136 241 -250 432 l-207 348 -127 0
c-71 0 -128 -1 -129 -2z"/>
</g>
</svg>
